# xmcd
#
# Track frame offsets:
#	150
#	21874
#	40402
#	63232
#	85541
#	105020
#	126282
#	147319
#	168509
#	191186
#	211644
#	234417
#
# Disc length: 3415 seconds
#
# Revision: 0
# Processed by: cddbd v1.5.2PL0 Copyright (c) Steve Scherf et al.
# Submitted via: EasyCDDAExtractor 2010.6.0.0
#
DISCID=980d550c
DTITLE=Binomio De Oro De América - 2000
DYEAR=1998
DGENRE=Vallenato
TTITLE0=Un Osito Dormilón
TTITLE1=El Siniestro de Ovejas
TTITLE2=Olvídala
TTITLE3=Lejos De Tí
TTITLE4=Parrandita, Parrandón
TTITLE5=Pa' Que Me Des Tus Besos
TTITLE6=Si No Regresas
TTITLE7=No Me Vayan A Olvidar
TTITLE8=Un Camino Lejano
TTITLE9=El Amor
TTITLE10=Canto Al Amor
TTITLE11=No Pude Olvidarte
EXTD=
EXTT0=
EXTT1=
EXTT2=
EXTT3=
EXTT4=
EXTT5=
EXTT6=
EXTT7=
EXTT8=
EXTT9=
EXTT10=
EXTT11=
PLAYORDER=
